<svg width="33" height="35" viewBox="0 0 33 35" fill="none" xmlns="http://www.w3.org/2000/svg">
<path fill-rule="evenodd" clip-rule="evenodd" d="M0.703403 0.464487V34.7253H14.6525C18.307 34.7253 21.5046 34.0075 24.2455 32.5718C27.019 31.1035 29.1725 29.0805 30.7061 26.5027C32.2397 23.925 33.0065 20.9557 33.0065 17.5949C33.0065 14.2341 32.2397 11.2648 30.7061 8.68709C29.1725 6.10937 27.019 4.10266 24.2455 2.66697C21.5046 1.19865 18.307 0.464487 14.6525 0.464487H0.703403ZM14.4567 31.5929H4.32527V16.7032H22.0253C22.9281 16.7032 23.6599 15.9714 23.6599 15.0686C23.6599 14.1658 22.9281 13.434 22.0253 13.434H4.32527V3.59691H14.4567C17.4912 3.59691 20.1179 4.20055 22.3367 5.40784C24.5881 6.5825 26.3338 8.21397 27.5737 10.3022C28.8136 12.3905 29.4336 14.8214 29.4336 17.5949C29.4336 20.3358 28.8136 22.7667 27.5737 24.8876C26.3338 26.9759 24.5881 28.6236 22.3367 29.8309C20.1179 31.0056 17.4912 31.5929 14.4567 31.5929ZM4.32527 13.434V16.7032H4.02352H2.38894V13.434H4.02352H4.32527Z" fill="#374151"/>
</svg>
